<?xml version="1.0" standalone="no"?>
<!DOCTYPE svg PUBLIC "-//W3C//DTD SVG 20010904//EN"
 "http://www.w3.org/TR/2001/REC-SVG-20010904/DTD/svg10.dtd">
<svg version="1.0" xmlns="http://www.w3.org/2000/svg"
 width="576.000000pt" height="720.000000pt" viewBox="0 0 576.000000 720.000000"
 preserveAspectRatio="xMidYMid meet">

<g transform="translate(0.000000,720.000000) scale(0.100000,-0.100000)"
fill="#000000" stroke="none">
<path d="M0 3600 l0 -3600 2880 0 2880 0 0 3600 0 3600 -2880 0 -2880 0 0
-3600z m2111 1382 c68 -34 121 -83 154 -143 26 -48 30 -66 33 -156 2 -57 1
-103 -2 -103 -4 0 -25 18 -47 39 -48 49 -132 89 -207 102 -31 5 -207 9 -389 9
l-333 0 0 141 0 140 373 -3 c365 -3 373 -3 418 -26z m1594 -5 c110 -37 198
-90 276 -167 130 -129 189 -260 196 -440 9 -203 -49 -360 -185 -498 -53 -54
-138 -115 -153 -110 -5 2 9 28 32 58 54 72 74 113 99 201 37 134 21 271 -47
401 -20 38 -53 88 -74 112 -55 63 -162 131 -254 163 l-80 27 -387 4 c-254 2
-412 0 -460 -8 -81 -12 -153 -47 -212 -102 -21 -21 -41 -38 -44 -38 -2 0 -2
46 0 103 3 86 8 110 31 153 41 79 120 141 212 165 17 4 242 7 500 6 l470 -3
80 -27z m265 3 c109 -29 250 -123 326 -219 53 -66 105 -164 128 -240 21 -72
22 -275 1 -355 -55 -209 -227 -390 -441 -462 -119 -39 -137 -29 -51 29 132 90
223 211 284 378 25 68 28 86 28 224 0 158 -13 223 -67 329 -56 109 -159 227
-255 290 -41 27 -49 52 -15 42 10 -3 37 -10 62 -16z m-1880 -339 c56 -22 137
-88 164 -134 41 -69 47 -117 44 -332 l-3 -200 -42 62 c-96 138 -234 246 -388
300 -76 26 -91 28 -310 33 l-230 5 -3 129 c-1 72 0 136 3 144 7 19 713 13 765
-7z m1397 9 c285 -38 479 -310 422 -592 -11 -55 -76 -189 -94 -195 -6 -2 -10
43 -10 114 0 110 -2 122 -28 173 -49 95 -137 172 -234 204 -46 15 -89 17 -335
14 -276 -4 -285 -4 -363 -31 -44 -14 -109 -43 -144 -64 -78 -46 -193 -157
-246 -238 l-40 -60 -3 200 c-2 119 1 220 8 250 21 101 132 203 242 224 62 13
733 13 825 1z m-1646 -380 c162 -49 312 -180 389 -336 62 -127 63 -133 67
-468 4 -271 2 -314 -12 -353 -25 -64 -81 -115 -152 -137 l-23 -7 0 354 c0 397
-8 479 -62 601 -53 123 -162 254 -270 326 -67 44 -41 53 63 20z m1129 13 c0
-5 -23 -23 -49 -41 -379 -257 -427 -808 -100 -1130 30 -29 75 -67 102 -84 81
-54 50 -64 -66 -23 -99 34 -171 80 -251 160 -81 80 -126 151 -164 257 -34 97
-42 253 -17 364 41 183 176 357 345 444 82 42 200 73 200 53z m50 -73 c0 -5
-16 -31 -36 -57 -45 -59 -83 -134 -100 -198 -18 -67 -18 -217 1 -290 45 -173
199 -332 377 -392 47 -15 106 -18 486 -21 380 -3 440 -1 490 13 57 17 182 97
182 116 0 6 5 9 11 7 19 -6 11 -181 -11 -231 -26 -61 -85 -124 -144 -155 l-51
-27 -480 -3 c-542 -3 -553 -2 -702 71 -152 74 -273 211 -334 377 -29 77 -32
97 -33 205 -1 100 3 132 22 195 51 159 120 258 251 357 58 44 71 50 71 33z
m-1254 -37 c98 -74 185 -187 225 -292 43 -115 49 -182 49 -557 l0 -354 -100 0
-100 0 0 463 c0 501 -2 521 -56 630 -15 28 -42 71 -60 94 -19 23 -34 44 -34
47 0 15 32 3 76 -31z m-72 -93 c14 -22 36 -64 49 -93 22 -51 22 -61 25 -534
l3 -483 -50 0 -50 0 -4 553 c-2 303 -7 562 -11 575 -13 36 9 26 38 -18z m1355
-20 c-34 -146 48 -324 186 -405 83 -50 145 -57 419 -52 197 3 264 8 311 21
161 46 324 158 413 285 26 37 51 67 55 67 5 -1 8 -97 8 -214 -1 -211 -1 -213
-28 -268 -29 -59 -81 -111 -148 -147 -39 -21 -51 -22 -463 -25 -459 -3 -487
-1 -599 54 -70 34 -171 135 -210 209 -67 130 -77 258 -29 390 27 74 75 150 86
139 5 -5 4 -29 -1 -54z m-861 -1272 c-2 -24 -6 -42 -10 -40 -5 1 -28 2 -53 2
l-45 0 0 40 0 40 56 0 55 0 -3 -42z m622 -213 l0 -255 -55 0 -55 0 0 255 0
255 55 0 55 0 0 -255z m-1200 175 l0 -50 60 0 60 0 0 -40 0 -39 -57 -3 -58 -3
-3 -102 -3 -102 68 -3 68 -3 3 -42 c3 -42 3 -43 -28 -43 -47 0 -97 28 -112 61
-8 18 -21 29 -33 29 -59 1 -75 54 -75 241 l0 149 55 0 55 0 0 -50z m1800 0 l0
-50 60 0 60 0 0 -40 0 -40 -60 0 -60 0 0 -105 0 -105 65 0 65 0 0 -45 c0 -41
-2 -45 -25 -45 -43 0 -93 27 -110 59 -8 17 -23 31 -33 31 -25 1 -50 22 -62 54
-5 15 -10 97 -10 182 l0 154 55 0 55 0 0 -50z m-834 -71 c95 -58 100 -266 9
-337 -54 -43 -141 -41 -195 4 l-30 26 0 -92 0 -91 -52 3 -53 3 0 250 0 250 53
3 c50 3 52 2 52 -22 0 -15 5 -26 10 -26 6 0 10 4 10 9 0 5 19 19 43 30 49 26
102 22 153 -10z m544 21 c82 -24 139 -113 131 -207 -1 -10 -36 -13 -141 -13
-129 0 -140 -1 -140 -18 0 -24 37 -59 72 -67 29 -7 98 11 98 26 0 5 23 9 50 9
61 0 65 -15 16 -64 -45 -44 -94 -60 -168 -53 -111 10 -178 82 -178 191 0 66
12 101 48 140 54 57 134 78 212 56z m747 -16 c42 -20 57 -35 77 -77 14 -28 26
-68 26 -89 l0 -38 -145 0 c-80 0 -145 -2 -145 -5 0 -21 35 -68 58 -76 32 -12
96 -3 113 17 12 14 109 21 109 7 0 -23 -51 -75 -92 -93 -120 -51 -246 -1 -284
113 -34 102 5 199 99 243 67 31 120 31 184 -2z m466 4 c36 -19 47 -69 47 -223
l0 -145 -55 0 -55 0 0 128 c0 148 -9 172 -64 172 -60 0 -71 -24 -74 -171 l-4
-129 -54 0 -54 0 0 190 0 190 54 0 c52 0 55 -1 58 -27 3 -26 4 -26 21 -8 41
41 126 52 180 23z m-2433 -30 l0 -43 20 32 c21 35 48 53 79 53 19 0 21 -6 21
-55 l0 -55 -37 0 c-21 0 -43 -4 -50 -8 -23 -14 -33 -64 -33 -163 l0 -99 -55 0
-55 0 0 183 c0 101 3 187 7 190 3 4 28 7 55 7 l48 0 0 -42z m290 -148 l0 -190
-55 0 -55 0 0 190 0 190 55 0 55 0 0 -190z"/>
<path d="M2399 2607 c-39 -30 -52 -115 -26 -167 16 -32 60 -53 95 -45 80 18
96 175 23 215 -26 13 -72 12 -92 -3z"/>
<path d="M3024 2620 c-21 -8 -54 -46 -54 -62 0 -5 38 -8 85 -8 79 0 85 2 85
20 0 12 -13 28 -32 40 -36 22 -51 23 -84 10z"/>
<path d="M3735 2616 c-17 -7 -36 -25 -43 -40 l-12 -26 90 0 c50 0 90 4 90 9 0
23 -15 43 -41 56 -34 18 -45 18 -84 1z"/>
</g>
</svg>
